# xmcd
#
# Track frame offsets:
#	150
#	18562
#	29600
#
# Disc length: 571 seconds
#
# Revision: 1
# Processed by: cddbd v1.5.1PL0 Copyright (c) Steve Scherf et al.
# Submitted via: EasyCDDAExtractor 7.0.3.1
#
DISCID=1f023903
DTITLE=John Denver - The Art And Soul of John Denver
DYEAR=2004
DGENRE=Pop
TTITLE0=Calypso
TTITLE1=Mother Natures Son
TTITLE2=Take Me Home, County Roads
EXTD=YEAR: 1998\n
EXTT0=
EXTT1=
EXTT2=
PLAYORDER=
